<?xml version="1.0" encoding="UTF-8" standalone="no"?>
<svg
   xmlns:dc="http://purl.org/dc/elements/1.1/"
   xmlns:cc="http://creativecommons.org/ns#"
   xmlns:rdf="http://www.w3.org/1999/02/22-rdf-syntax-ns#"
   xmlns:svg="http://www.w3.org/2000/svg"
   xmlns="http://www.w3.org/2000/svg"
   xmlns:sodipodi="http://sodipodi.sourceforge.net/DTD/sodipodi-0.dtd"
   xmlns:inkscape="http://www.inkscape.org/namespaces/inkscape"
   width="882.70483"
   height="903.2735"
   viewBox="0 0 26.481145 27.098205"
   id="svg2"
   version="1.1"
   inkscape:version="0.91 r13725"
   sodipodi:docname="Flag_of_Botswana.svg">
  <metadata
     id="metadata14">
    <rdf:RDF>
      <cc:Work
         rdf:about="">
        <dc:format>image/svg+xml</dc:format>
        <dc:type
           rdf:resource="http://purl.org/dc/dcmitype/StillImage" />
        <dc:title></dc:title>
      </cc:Work>
    </rdf:RDF>
  </metadata>
  <defs
     id="defs12" />
  <sodipodi:namedview
     pagecolor="#ffffff"
     bordercolor="#666666"
     borderopacity="1"
     objecttolerance="10"
     gridtolerance="10"
     guidetolerance="10"
     inkscape:pageopacity="0"
     inkscape:pageshadow="2"
     inkscape:window-width="1366"
     inkscape:window-height="716"
     id="namedview10"
     showgrid="false"
     fit-margin-top="0"
     fit-margin-left="0"
     fit-margin-right="0"
     fit-margin-bottom="0"
     inkscape:zoom="0.64"
     inkscape:cx="426.04044"
     inkscape:cy="520.0153"
     inkscape:window-x="-8"
     inkscape:window-y="-8"
     inkscape:window-maximized="1"
     inkscape:current-layer="svg2" />
  <path
     style="fill:#ffffff;stroke:#75aadb;stroke-width:0.066;stroke-miterlimit:4;stroke-dasharray:none;stroke-opacity:1"
     d="m 0.05886952,15.768008 c 9.737e-5,0.405713 9.064e-5,0.72495 1.7578e-4,1.125 l 20.4191607,0 c 0.03124,-0.01757 0.08195,0.0098 0.11666,-0.05426 0.119161,-0.0057 0.03806,-0.195723 0.162832,-0.181113 l 0.01805,0.01 0.004,0.01641 -0.01459,0.02625 0.0021,0.01295 c 0.0144,0.02074 0.05625,0.01615 0.07623,0.01125 0.0088,-0.0053 0.01787,-0.02041 0.01805,-0.0307 l -0.01254,-0.03779 0.0032,-0.01482 c 0.01754,-0.01369 0.07024,-0.02991 0.0907,-0.01676 0.0098,0.01911 -0.03515,0.0519 -0.03305,0.0726 l 0.01559,0.01523 c 0.01858,0.0026 0.04209,0.0063 0.0576,-0.0069 0.01257,-0.0136 0.02014,-0.05659 0.02174,-0.07383 0.04724,-0.05347 0.168648,-0.0299 0.230918,-0.03035 0.0495,-3.9e-4 0.05113,-0.02814 0.07875,-0.05754 0.03605,-0.03846 0.06642,-0.04322 0.07512,-0.106172 0.0027,-0.02001 -0.0217,-0.03868 -0.0167,-0.0532 0.02643,-0.02013 0.05437,-0.101224 0.03311,-0.134414 0.01369,-0.0317 0.06991,-0.02143 0.07131,-0.06269 -0.0062,-0.02377 -0.0123,-0.03913 -0.0085,-0.06287 l 0.01359,-0.01459 0.01184,-0.003 c 0.04169,0.0333 0.07355,0.0392 0.125976,0.0317 0.05144,-0.02881 0.04206,-0.08527 0.110684,-0.07858 l 0.01488,0.0091 0.01137,0.03434 c 0.02046,0.01634 0.04401,0.03154 0.05391,0.05713 0.06832,0.02209 0.09091,-0.03294 0.08871,-0.0876 0.01175,-0.03021 0.07159,-0.07973 0.09896,-0.09598 l 0.0066,-0.01647 c 0.0037,-0.02639 -0.05218,-0.06059 -0.06158,-0.08543 l 0.0045,-0.0143 0.01189,-9.96e-4 0.01195,0.01336 c 0.0074,-5e-5 0.025,0.01584 0.03,0.02074 0.0065,0.0021 0.08671,-0.03839 0.09141,-0.05139 l -0.0081,-0.03709 0.01822,-0.02221 0.04629,0.0042 c 0.01448,-0.01146 0.03032,-0.02063 0.04664,-0.02912 l -22.13771448,0 z"
     id="rect6"
     inkscape:connector-curvature="0" />
  <path
     style="fill:#75aadb;stroke:#75aadb;stroke-width:0.066;stroke-miterlimit:4;stroke-dasharray:none;stroke-opacity:1"
     d="m 0.0590453,16.908007 c 3.9984e-4,1.878701 5.2425e-4,3.490041 -8.2031e-4,3.697149 l 0,0.05432 0.01353515,0.01893 c 0.02132,0.02982 0.05777688,0.05487 0.07429688,0.08502 0.01115,0.02046 0.0157406,0.0401 0.0316406,0.05877 l 0.0275977,0.0011 c 0.01784,0.0133 0.0354695,0.03743 0.0437695,0.05795 l 0.0481641,0.0023 0.006504,0.0068 c 0.018665,0.07789 0.0415506,0.107216 0.11414062,0.154336 0.0167,-0.002 0.070445,-0.0051 0.084375,0.0074 0.01471,0.02812 0.0443633,0.06058 0.0723633,0.076 l 0.009902,5.85e-4 c 0.00814,-0.01086 0.0263778,-0.03248 0.0392578,-0.03838 0.00877,-0.0011 0.0231274,3.18e-4 0.0305274,0.0059 0.02831,0.0781 0.0572416,0.03824 0.0941015,0.05467 0.087828,0.01536 0.0907705,0.09716 0.12873048,0.162891 0.009633,0.01664 0.0801117,0.04147 0.12076173,0.07881 0.01554,0.0176 0.0308509,0.03724 0.0474609,0.05379 0.0249,0.02475 0.092519,0.01086 0.1000195,0.05789 0.01813,0.11436 0.061761,0.07279 0.089941,0.155039 l -0.00832,0.0143 c 0.04767,0.05001 0.039221,0.09692 0.054551,0.160137 l 0.00932,0.0081 c 0.02278,0.0033 0.046821,-0.01891 0.066621,-0.01031 0.01864,0.01017 0.025239,0.04616 0.020039,0.06492 -0.00948,0.01485 -0.033227,0.04854 -0.049688,0.05684 l -0.0041,0.01365 c 0.01879,0.03853 0.035886,0.09406 0.087656,0.07834 l 0.028594,0.01055 0.00521,0.01219 c -0.034237,0.154658 0.082999,0.09491 0.099609,0.163653 l 0.013359,-0.007 0.022324,0.01869 c -0.0374,0.02162 -0.042033,0.03452 -0.057363,0.06926 l 0.013125,0.02496 0.015703,0.0066 0.02127,-0.0071 0.020684,0.0066 c 0.00562,0.0084 -0.00481,0.03638 -0.00861,0.04418 0.00952,0.0458 0.045011,0.06204 0.062461,0.139687 0.00614,0.0074 0.02319,0.02331 0.03375,0.02402 l 0.053145,-0.01424 0.030996,0.02672 c 0.011446,0.01608 -0.014626,0.06446 -9.96e-4,0.08074 l 0.013008,0.01002 0.018516,0.0011 0.024551,-0.01418 0.00715,0.0026 0.010195,0.01611 c 6.6e-4,0.01125 -0.018484,0.02992 -0.026484,0.03562 -0.00889,0.02511 0.00943,0.0433 0.031348,0.0532 0.04447,9.6e-4 0.049553,-0.02729 0.086953,-0.04453 0.00972,2.1e-4 0.025338,0.01437 0.030938,0.02127 l 0.00527,0.01828 c -0.00202,0.03755 -0.059715,0.04574 -0.087715,0.03844 -0.0013,0.0019 -0.00811,0.01056 -0.00838,0.01236 -0.00357,0.02528 -0.00626,0.051 -0.010957,0.07611 -0.00341,0.01828 -0.041742,0.06133 -0.012422,0.07887 0.114687,0.06856 0.09124,0.04791 0.1620703,0.162129 0.0023,0.0037 0.00315,0.01004 0.00445,0.01424 6.201e-4,0.02785 -0.052832,0.0569 -0.077402,0.0648 l -0.030059,0.04037 -0.00252,0.02654 0.01084,0.01002 0.018574,0.0011 c 0.00829,-0.0097 0.029846,-0.01467 0.041836,-0.01277 0.0617,0.01992 0.0019,0.102502 -0.013008,0.131132 0.00477,0.02299 0.016018,0.04062 0.028008,0.06006 0.086778,0.02916 0.1156419,0.1201 0.1286719,0.19916 0.00591,0.03602 0.050865,0.03728 0.072305,0.05666 l 0.00229,0.0054 c -0.00948,0.01462 -0.045808,0.09958 -0.044883,0.10248 l 0.010371,0.01746 0.014297,0.0053 c 0.01664,0.0045 0.072028,-0.05402 0.084668,-0.06568 l 0.015,-0.0016 0.010137,0.0067 c 0.011307,0.0348 -0.025888,0.132915 3.516e-4,0.158145 0.0145,8.61e-4 0.036311,0.008 0.047461,0.01764 0.01951,0.03438 0.00584,0.07724 -0.016113,0.106817 -0.00429,0.105005 0.059343,0.105903 0.1048827,0.162773 0.00119,0.03647 -0.036824,0.06212 -0.029824,0.100196 l -0.030117,0.04113 9.375e-4,0.01219 0.050508,0.06785 0.0034,0.03182 c -0.06227,0.113712 0.016977,0.06877 0.013477,0.124746 0.00235,0.0257 -0.04171,0.04232 -0.04541,0.06779 l 0.0024,0.01424 c 0.02454,0.03042 0.049446,0.0361 0.086426,0.0293 0.00866,0.0075 0.016276,0.02447 0.017051,0.03574 -0.031128,0.106547 -0.082423,0.07821 -0.1202931,0.137227 l 0.00709,0.0092 -0.012422,0.0081 c 0.01342,0.03757 -0.027303,0.168987 -0.055723,0.192187 l -0.00117,0.01494 c -0.02165,0.01458 -0.017267,0.04243 -0.033457,0.06023 -0.02213,0.02423 -0.046032,0.01352 -0.069082,0.03082 -0.02013,0.01506 -0.0285,0.04473 -0.04207,0.0651 -0.02198,0.03304 -0.054895,0.0543 -0.076875,0.08385 -0.01158,0.01553 -0.012659,0.04373 -0.024199,0.05936 -0.03352,0.04562 -0.042485,0.05834 -0.055605,0.119531 -0.00603,0.0068 -0.032481,0.0097 -0.040781,0.01002 -0.083411,0.0464 0.00805,0.08826 -0.1448437,0.110508 -0.036327,0.03725 -0.030818,0.152643 -0.035918,0.200683 -0.00221,0.02147 -0.018703,0.05279 -0.019688,0.07289 -0.0012,0.02395 0.00286,0.05169 0.00416,0.07582 0.00256,0.04673 0.054977,0.06547 0.067617,0.112676 0.0058,0.02174 0.00622,0.05123 0.00902,0.07389 0.00476,0.03913 0.00168,0.137901 -0.00832,0.17121 -0.08333,0.04017 -0.029823,0.122778 0.00844,0.176368 -0.0206,0.0609 0.015945,0.102293 -0.012715,0.164472 l 0.0075,0.01688 c 0.02171,0.0032 0.049018,0.03214 0.058418,0.05021 l -0.012363,0.04154 0.00609,0.01828 c 0.021503,0.03277 0.0731,0.02389 0.1045898,0.04951 0.00519,0.0061 -0.010989,0.07066 -0.00879,0.09258 8.901e-4,0.0091 0.020778,0.05912 0.025078,0.0709 0.02353,-0.02827 0.044811,-0.06142 0.062051,-0.09387 0.01264,8.1e-4 0.034568,-0.01744 0.049688,-0.02144 0.02213,-0.0058 0.044848,0.0012 0.066738,-0.0025 0.014225,-0.0024 0.1043701,-0.07443 0.1204101,-0.09059 0.01563,-0.002 0.035566,-4.11e-4 0.050566,0.0047 l 0.027949,-0.04992 c 0.097664,-0.0209 0.171185,-0.100796 0.274336,-0.06311 0.01658,0.0061 0.033173,0.02192 0.049453,0.02982 0.01941,0.0092 0.0668,-0.01461 0.09,-0.0062 0.06495,0.04938 0.071776,0.131469 0.1768359,0.126269 l 0.0092,-0.0049 c 0.033366,0.0163 0.071384,3e-4 0.1040037,0.0085 0.060866,0.01533 0.1255179,0.04404 0.1850979,0.06492 0.0017,6.06e-4 0.00629,-7.59e-4 0.00809,-9.96e-4 0.089255,-0.01145 0.1302039,-0.06407 0.1981641,-0.07377 0.052664,-0.0076 0.1001544,-0.0043 0.1539843,-0.02033 l 0.067676,0.0307 c 0.063126,6.9e-4 0.1168839,-0.08228 0.1606641,-0.07488 0.026899,0.02356 0.1573295,-0.01574 0.2054295,-0.0031 0.043749,0.01142 0.080396,0.04333 0.1201758,0.05678 0.02943,0.0099 0.059288,0.0052 0.091348,0.02133 l 0.00521,0.0068 c 0.02109,-0.0079 0.053482,0.02597 0.079102,0.02227 0.058807,-0.05666 0.1108875,-0.05591 0.1959376,-0.04061 0.01929,0.02162 0.053408,0.03867 0.078398,0.05209 0.01118,0.0015 0.036492,-0.0055 0.039492,-0.0049 0.01864,0.003 0.039249,0.0083 0.057949,0.0096 0.035014,0.0025 0.067435,-0.03104 0.1076952,-0.01986 0.038558,-0.01542 0.1409991,-0.130983 0.1696289,-0.142793 0.04067,-0.0094 0.048105,-0.02037 0.066445,-0.05303 -0.00591,-0.01852 0.00743,-0.03757 0.014531,-0.05397 -0.00575,-0.02463 -0.00978,-0.159963 -0.013477,-0.164063 -0.04107,-0.02522 -0.045913,-0.07865 -0.00568,-0.109218 0.060449,-0.04597 0.069956,-0.06441 0.1484767,-0.05209 0.01321,0.0021 0.027574,0.01186 0.040664,0.01336 0.043151,0.0049 0.1426305,0.0082 0.1887307,0.0026 0.1271579,0.0083 0.092169,-0.0064 0.19875,-0.05232 0.00636,-0.0028 0.040284,-0.02482 0.048984,-0.02742 0.038767,-0.01154 0.075557,-0.01449 0.1155471,-0.02895 0.0017,-6e-4 0.00544,-0.0012 0.00674,-0.0024 0.033552,-0.02961 0.087354,-0.16027 0.1027738,-0.16207 l 0.010898,0.0018 c 0.01416,-0.0051 0.04044,-0.05821 0.04834,-0.07178 0.00648,-0.01131 0.044543,-0.01115 0.059062,-0.02115 0.02249,-0.05791 0.071799,-0.07196 0.098789,-0.121172 0.01384,-0.02523 -0.0094,-0.05393 0,-0.07746 0.00561,-0.0086 0.039467,-0.02211 0.048867,-0.02561 0.01813,-0.03381 -1.801e-4,-0.06472 0.012539,-0.09955 0.01489,-0.0087 0.040897,-0.03302 0.044297,-0.05127 l -0.011133,-0.03844 0.010605,-0.03152 c 0.1162392,-0.03632 0.1078518,-0.115668 0.1620117,-0.137167 0.03996,3e-4 0.1312536,-0.01508 0.1627734,-0.03059 0.01491,-0.0073 0.03333,-0.02227 0.04875,-0.02707 0.0748,-0.0234 0.1318872,0.004 0.085957,-0.102715 l 0.00393,-0.01371 0.00557,-0.0049 c 0.039035,0.0044 0.1081472,-0.02589 0.1091013,-0.07008 l -0.016816,-0.03551 c 0.00763,-0.01735 0.022661,-0.03107 0.03498,-0.04488 0.062833,-0.07023 0.06341,-0.0076 0.1395705,-0.04201 0.01974,-0.0089 0.011966,-0.04215 0.031406,-0.05309 0.013211,-0.0073 0.095256,0.01314 0.1130859,0.01664 l 0.00527,0.01008 c 0.0252,0.01375 0.068973,0.03558 0.096563,0.03738 l 0.045762,-0.02777 c 0.00617,-0.02272 0.025565,-0.05182 0.039375,-0.07031 -0.00161,-0.0524 0.00543,-0.101844 0.013828,-0.153164 l 0.023848,0.0069 0.00691,0.01137 c 0.00867,0.0013 0.030152,0.0019 0.037852,-0.0038 0.01091,-0.03716 0.030268,-0.05419 0.066738,-0.06504 0.0025,-0.01419 0.010997,-0.04608 0.0068,-0.05789 l 0.018692,-0.04195 c 0.0218,-0.01804 0.086621,-0.01757 0.089121,-0.05684 0.00185,-0.02839 0.00974,-0.07009 0.00264,-0.09785 -0.00377,-0.01461 -0.012281,-0.02428 -0.010781,-0.04447 l 0.013828,-0.01606 c 0.029463,-0.01274 0.079988,0.01874 0.1375779,0.0042 l 0.00961,-0.01248 0.00527,-0.05654 c 0.018936,-0.01617 0.022623,-0.05488 0.018223,-0.07728 -0.0131,-0.0058 -0.017316,-0.07573 -0.00932,-0.0907 0.01802,-0.01822 0.063306,-0.04833 0.053906,-0.07893 l -0.010371,-0.0106 c -0.03015,-0.0029 -0.054577,-0.01906 -0.076348,-0.0385 9e-4,-0.01079 0.00309,-0.02707 0.00949,-0.03627 0.00793,-0.0082 0.034387,-0.01056 0.044707,-0.01014 l 0.00973,-0.0071 0.013066,-0.03639 -0.00896,-0.03434 c 0.032803,-0.02667 0.072713,-0.0318 0.1044727,-0.06076 l 0.018574,-0.04406 -0.0048,-0.01412 -0.011309,-0.0093 c -0.02156,0.002 -0.073393,-0.02272 -0.091523,-0.03252 l -0.010547,-0.01729 9.36e-4,-0.01365 c 0.00683,-0.0074 0.034528,-0.01332 0.043828,-0.01482 0.04217,-0.03543 0.012978,-0.148404 0.066328,-0.174434 0.01483,-0.0019 0.047116,-0.0021 0.056015,-0.01389 l 0.00451,-0.01576 0.012012,-0.0024 c 0.03137,-0.02412 0.081223,-0.143153 0.056953,-0.176133 -0.00418,-0.0074 -0.039034,3e-5 -0.051914,-0.01547 -0.039842,-0.08627 0.1033923,-0.09804 0.1149024,-0.105938 L 8.0999972,23.206 8.0869312,23.17788 8.0007402,23.118 c 0.0014,-0.01912 0.027987,-0.02894 0.036387,-0.04248 0.00235,-0.0038 0.012724,-0.03847 0.014824,-0.04477 0.00981,-0.02955 0.033304,-0.05562 0.055254,-0.07682 -0.00361,-0.01917 0.0082,-0.05213 0.01834,-0.06773 l -0.00557,-0.01816 -0.027715,-0.01746 -0.00469,-0.01277 c 0.037336,-0.06668 0.09669,-0.0065 0.1491798,-0.0106 L 8.24138,22.81619 8.23669,22.80476 C 8.22402,22.80286 8.207734,22.7871 8.201534,22.77669 c 0.02935,-0.05547 0.046304,-0.09064 0.063984,-0.149297 0.037813,-0.04592 0.1124565,-0.07726 0.1634766,-0.111621 l 0.017754,-0.04195 c -0.0054,-0.01533 -0.006,-0.03866 -0.0024,-0.05402 0.01228,-0.05237 0.026842,-0.04843 0.081563,-0.04213 0.00831,-0.0064 0.01534,-0.02379 0.016641,-0.03381 -0.00632,-0.01375 -0.018077,-0.07171 0.00193,-0.08561 0.00951,0.01085 0.043225,0.04394 0.05918,0.0443 0.014581,-0.01578 0.048958,-0.06556 0.07541,-0.06076 l 0.010137,0.0058 0.00633,0.0174 c -0.00167,0.01685 -0.020384,0.0437 -0.030762,0.05596 -0.0088,0.02746 0.051983,0.05177 0.078047,0.03486 0.00972,-0.0094 0.017129,-0.03009 0.017695,-0.0433 0.010497,-0.01435 0.056055,-0.02843 0.072129,-0.03223 0.015895,0.0056 0.036012,0.01674 0.047285,0.02971 l 0.012129,3e-4 0.037324,-0.02906 0.045996,-0.0063 c 0.022694,-0.01372 0.023073,-0.05115 0.050449,-0.06141 0.1183302,-0.04443 0.122403,0.0077 0.1606641,-0.0019 0.020398,-0.0051 0.087447,-0.02567 0.105996,-0.02555 l 0.00545,1.2e-4 0.013067,0.0084 0.017051,0.03809 c 0.0065,0.0059 0.020459,0.01325 0.029648,0.0126 0.016103,-0.0089 0.018095,-0.01638 0.028652,-0.03287 l 0.00932,0.0017 c 0.00522,0.01077 0.016371,0.02285 0.026719,0.02895 l 0.096738,-0.01822 c 0.037634,0.05722 0.050008,0.06627 0.1267967,0.06018 0.015715,0.01502 0.032713,0.02122 0.053379,0.01852 0.025735,-0.01474 0.035235,-0.0842 0.060703,-0.102598 l 0.06123,0.0013 0.00984,0.01453 c -0.00424,0.01935 -0.029097,0.02392 -0.030527,0.03779 l 0.00621,0.01266 0.00797,0.0045 c 0.042466,-0.01207 0.1057749,0.04728 0.1102146,0.08912 l -0.020215,0.04758 0.00328,0.01143 0.00727,0.0038 c 0.029284,0.0073 0.051551,-0.03694 0.080508,-0.03404 0.0093,0.0011 0.02458,0.02633 0.02836,0.03363 0.01572,0.0021 0.05668,0.01054 0.06855,0.02262 l 0.0018,0.0081 -0.01148,0.01465 0.0025,0.0087 c 0.04375,0.01389 0.0748,0.01868 0.0832,0.06961 l 0.0074,0.0066 c 0.0078,0.0022 0.0219,3.03e-4 0.0283,-0.0051 0.0024,-0.0074 0.0122,-0.02824 0.0208,-0.03064 l 0.01213,3e-4 c 0.0077,0.0054 0.01544,0.01237 0.02074,0.02027 l 0.0028,0.01688 -0.0094,0.01254 -0.01688,0.0054 0.0031,0.0081 c 0.01428,0.0036 0.04274,0.01597 0.05104,0.02936 0.0046,0.0161 0.0089,0.04628 0.02232,0.05824 0.01198,0.0034 0.03862,-0.0043 0.04945,-0.0085 l 0.0069,-0.0078 c -0.0034,-0.0068 -0.0042,-0.01878 -0.0011,-0.02578 l 0.01172,-0.0099 0.02478,0.01336 c 0.0047,0.0063 0.0083,0.01484 0.0094,0.02274 l -0.01512,0.03111 0.005,0.01547 0.01166,0.0071 c 0.01217,-9e-4 0.05807,-0.0023 0.06727,0.0071 l 0.01459,0.0266 0.01219,9.36e-4 c 0.0086,-0.0076 0.0323,-0.03192 0.04348,-0.03352 0.01819,0.02818 0.05404,0.05778 0.0849,0.07084 l 7.62e-4,0.05291 c 0.0099,0.0084 0.02157,0.02669 0.02297,0.0399 l 0.01037,0.0091 c 0.02681,-0.0022 0.0361,0.01618 0.0559,0.02437 0.01902,0.0078 0.05849,-0.01109 0.06967,-0.0047 l 0.02484,0.014 0.0055,0.01066 c -0.0043,0.01038 -0.02515,0.02388 -0.03445,0.02848 l -0.0037,0.01371 c 0.0021,0.01112 0.01215,0.04138 0.02408,0.04658 0.0097,0.0041 0.04228,-0.0044 0.05168,-0.0074 l 0.01705,0.01564 c 0.0047,0.01125 0.0016,0.03181 -0.0039,0.04225 l 0.0143,0.01846 c 0.02845,0.0081 0.05615,0.01241 0.08549,0.01441 l 0.0095,0.0065 c 0.02701,0.08642 0.04999,0.04387 0.07289,0.08684 -0.003,0.01515 0.0028,0.04027 0.01225,0.0525 0.01846,0.0085 0.0843,0.03589 0.104824,0.03058 l 0.01043,-0.0059 0.01646,-0.03258 c 0.02466,-0.0035 0.02747,-0.02043 0.0433,-0.02203 0.03235,0.02519 0.07016,0.02746 0.109336,0.02016 l 0.0075,0.0065 0.002,0.01418 c -0.0121,0.01449 -0.02289,0.03957 -0.01529,0.05836 l 0.01084,0.0037 c 0.0085,-0.0059 0.02595,-0.0073 0.03545,-0.0041 l 0.0063,-0.0044 0.0096,-0.02484 0.01072,3e-4 c 0.02651,0.01783 0.04569,0.03303 0.07605,0.04113 l 0.0091,-0.0038 c 0.0109,-0.01318 0.0085,-0.053 0.0056,-0.06809 0.01002,-0.0019 0.02648,0.0039 0.03328,0.01154 l 0.0068,0.0235 0.01031,0.0064 c 0.0136,0.0016 0.02423,-0.01707 0.03193,-0.01957 0.02335,-0.0074 0.120288,-0.01329 0.133829,-0.02438 l -0.0116,-0.01922 0.01342,-0.01892 0.04078,-0.01248 c 0.0057,0.003 0.01183,0.01037 0.01225,0.01717 l -0.01301,0.02906 0.004,0.0086 0.04799,0.0042 0.03773,-0.03416 0.0073,0.0033 c 0.01056,0.0048 0.02246,0.03161 0.03176,0.04061 0.01377,0.01322 0.03377,0.0157 0.04793,0.03404 l 0.02859,8.79e-4 c -2.4e-4,0.05559 -0.0011,0.07433 0.05801,0.09744 l 0,0.01564 0.0259,0.01998 0.0077,0.02824 0.01781,0.01488 0.01148,8.19e-4 0.02256,-0.02127 0.0143,7.62e-4 c 0.0063,0.0042 0.01102,0.01321 0.01242,0.02051 l -0.0084,0.01934 c -0.0093,0.0038 -0.0222,0.01196 -0.0276,0.02086 0.03472,0.04894 0.05897,-0.0156 0.08414,-0.0184 0.0089,0.0033 0.02732,9.72e-4 0.03562,-0.0022 l 0.0087,0.0038 0.0094,0.02063 -0.01746,0.02449 c 0.0082,0.02642 0.121505,0.09853 0.155625,0.103535 l 0.01916,-0.0035 0.01394,-0.01682 0.0081,3e-4 0.01629,0.01225 0.0143,7.02e-4 0.0061,-0.0064 c -3e-4,-0.0071 0.0019,-0.02419 0.0086,-0.02889 l 0.01201,-0.0032 c 0.01011,0.0063 0.03268,0.0069 0.04383,0.0056 0.01138,-0.0055 0.01932,-0.02904 0.02027,-0.04025 l 0.01945,0.01887 0.01436,0.0014 0.0031,-0.0259 0.0073,0.0024 c 0.0025,0.0082 0.01127,0.01792 0.01887,0.02162 0.0297,-0.0053 0.22616,0.0851 0.25166,0.0924 0.02546,0.0072 0.06376,-0.003 0.08783,0.01318 0.03083,0.02079 0.06086,0.04884 0.09,0.07219 0.0016,0.0013 0.0054,0.002 0.0073,0.0027 0.03788,0.01383 0.08357,0.03695 0.122344,0.04465 0.01688,0.0034 0.0379,-0.0024 0.05508,3e-4 0.01333,0.0022 0.02845,0.01886 0.04348,0.01166 0.02949,-0.03385 0.0868,-0.04212 0.128554,-0.04652 0.04082,0.0246 0.057,0.02241 0.103067,0.03141 0.0524,0.01027 0.09089,0.04407 0.133652,-0.0013 0.01625,-0.0054 0.03159,0.0019 0.04289,-5.85e-4 0.126207,-0.02726 0.06715,-0.02633 0.198868,-0.01318 0.0046,-0.02673 0.02774,-0.03932 0.03164,-0.06598 l 0.01,-0.0011 0.02361,0.01383 c 0.01106,-0.0119 0.07509,-0.0749 0.07482,-0.08701 l 0.01764,-0.0049 0.02736,0.01705 c 0.01484,-0.0069 0.01495,-0.01325 0.02285,-0.02754 l 0.03568,-0.01459 0.01266,-0.01822 0.0126,9.96e-4 0.02484,-0.02402 -0.005,-0.01113 0.01195,-0.02859 0.0089,-0.0057 c 0.09295,0.0057 0.0747,-0.03937 0.165,0.01553 l 0.03527,-0.0046 0.0022,0.01236 c 0.0037,0.0075 0.08497,0.03429 0.10957,0.07008 0.02878,0.0094 0.06146,-0.0062 0.09018,-0.0035 0.02687,0.0025 0.04912,0.02256 0.07969,0.02256 0.04732,0 0.09855,-0.01012 0.146075,-0.0073 0.0702,0.0041 0.204598,-0.007 0.265078,0.02514 0.03358,0.003 0.1493,-0.07345 0.18082,-0.09182 0.06021,0.0057 0.118657,-0.02966 0.160137,-0.07213 0.05654,-0.05782 0.126198,-0.09239 0.195058,-0.134473 0.01736,-0.01058 0.166806,-0.0957 0.175606,-0.107929 0.06861,-0.09635 0.11423,-0.222182 0.16582,-0.329121 0.0024,-0.005 0.02381,-0.0476 0.02414,-0.0501 0.0059,-0.0452 -0.01622,-0.101078 0.0094,-0.144258 0.01836,-0.03096 0.04275,-0.06481 0.05766,-0.09727 0.0149,-0.03251 0.0085,-0.07744 0.02039,-0.10711 0.005,-0.01246 0.03568,-0.0598 0.03768,-0.0682 0.01813,-0.07742 0.0242,-0.165569 0.03574,-0.244629 0.02952,-0.02848 0.06912,-0.06401 0.08836,-0.100957 0.0467,-0.08964 0.06938,-0.189209 0.108632,-0.281718 0.04854,-0.114543 0.09058,-0.22976 0.136055,-0.345645 0.03104,-0.07891 0.06883,-0.159772 0.09445,-0.240352 0.0057,-0.0178 0.0041,-0.04034 0.0086,-0.05871 0.0058,-0.02386 0.05213,-0.0282 0.06024,-0.05701 0.0118,-0.04211 0.02847,-0.174357 0.0089,-0.212227 l -0.0097,-0.0025 c -0.04787,-0.08403 -0.04471,-0.07307 -0.05625,-0.169629 -0.0059,-0.05001 -0.01763,-0.04302 0.01652,-0.09229 0.02457,-0.0031 0.05412,-0.0044 0.07857,8.22e-4 0.03552,-0.02272 0.06124,-0.05738 0.09205,-0.09187 0.0371,-0.02473 0.174983,-0.0053 0.228633,-0.0074 0.04235,-0.0016 0.08424,-0.02143 0.123867,-0.03053 l 0.159609,-0.03656 c 0.01471,-0.0033 0.02244,-0.01464 0.03896,-0.01594 l 0.01307,0.0074 c 0.04557,-0.01052 0.283802,-0.07012 0.310312,-0.06762 l 0.0053,-0.0066 c 0.0049,-0.0011 0.441954,-0.09592 0.445254,-0.09832 0.056,0.0053 0.07006,0.0039 0.07846,-0.059 l 0.0052,-0.0046 0.03193,-0.0023 0.01254,-0.01518 0.01998,-0.0047 c 0.02329,-0.02233 0.06388,-0.05324 0.07447,-0.08297 0.0074,-0.02076 0.09261,-0.25533 0.113964,-0.27832 0.0186,-0.02004 0.05307,-0.02584 0.06756,-0.05268 0.0017,-0.0031 0.0035,-0.01621 0.0043,-0.02022 l 0.0059,-0.0039 0.01899,0.0021 c 0.0074,-0.006 0.01092,-0.02908 0.01125,-0.03768 l 0.02484,-0.0032 0.01623,-0.0402 c 0.02631,-0.007 0.0613,-0.04859 0.0641,-0.07588 0.03435,0.0075 0.08794,-0.03294 0.125097,-0.04535 0.02511,-0.01495 0.07382,9.78e-4 0.07992,-0.0049 l 0.02314,-0.03727 c -0.01443,-0.03623 -0.0023,-0.08154 0.0201,-0.111211 l 0.03018,-0.01459 0.01752,0.0026 0.0093,-0.0065 c 0.0034,-0.01462 0.01147,-0.03754 0.02215,-0.04881 l 0.02314,0.0035 c 0.0206,-0.01226 0.03236,-0.03766 0.05438,-0.04506 0.01298,-0.0011 0.04529,0.0174 0.05555,0.0242 0.01133,-0.01474 0.05907,-0.01925 0.07529,-0.01805 0.02836,-0.02651 0.08117,-0.03459 0.100429,-0.06 0.0088,-0.01166 0.01094,-0.03259 0.02555,-0.03979 0.01843,0.0012 0.04879,0.0012 0.0665,-0.0057 0.02138,-0.01992 0.03839,-0.03365 0.04629,-0.0641 -0.0036,-0.0051 -0.01888,-0.08403 -0.01688,-0.08883 0.01181,-0.0099 0.04147,-0.03891 0.04447,-0.05531 -0.0091,-0.01274 -0.03499,-0.05111 -0.03609,-0.06715 0.01092,-0.0083 0.04452,-0.03814 0.04582,-0.05326 -0.0063,-0.01253 -0.01028,-0.0268 -0.01348,-0.04037 l -0.02848,-0.01242 -0.0077,-0.02197 c 0.0086,-0.03388 0.0097,-0.06002 0.0109,-0.09592 0.117551,-0.07333 0.05325,-0.101025 0.07934,-0.143965 0.07705,-0.126856 0.04725,-0.07755 0.04605,-0.20086 0.0045,-0.01565 0.02655,-0.03604 0.03967,-0.04424 0.02428,-0.03993 -8.37e-4,-0.09142 0.01365,-0.132481 0.01724,-0.04873 0.06968,-0.141391 0.05537,-0.191191 l -0.03434,0.002 -0.0086,-0.0093 c -0.0014,-0.0067 -3e-4,-0.01604 0.0038,-0.02174 l 0.04922,-0.03012 0.0081,-0.01711 -0.0017,-0.01348 -0.01928,-0.01863 c -0.02439,-0.06757 0.03593,-0.111167 0.03533,-0.126797 l -0.0031,-0.08062 0.0075,-0.01031 c -0.008,-0.0815 0.02605,-0.130793 0.08912,-0.169863 l 0.0096,-0.0063 c -0.0033,-0.02851 -0.0045,-0.119427 0.02379,-0.140157 l 0.01676,-0.0017 0.01008,0.0086 0.01494,0.04518 0.0252,-0.0025 0.0071,0.0033 0.0074,0.01547 -0.01687,0.02947 0.0019,0.02367 c 0.04354,-0.01595 0.132864,-0.04433 0.138164,-0.100957 -0.005,-0.03313 -0.02538,-0.05535 -0.04963,-0.07822 l -0.0034,-0.02092 c 0.01447,0.0058 0.04198,0.005 0.05525,-0.004 0.0062,-0.0079 0.01,-0.02812 0.01166,-0.03762 l 0.03012,-0.0014 c 0.01929,-0.0067 0.01589,-0.08135 0.06352,-0.0951 0.02117,-0.0049 0.04692,0.02006 0.07793,0.01676 l 0.0095,-0.0046 c 0.0088,-0.0091 0.02322,-0.0373 0.01582,-0.0498 -0.0086,-0.01231 -0.0377,-0.02137 -0.05127,-0.03428 l -0.0084,-0.031 0.0059,-0.0184 0.01031,-0.009 0.01541,-0.0024 0.01342,0.0066 0.02467,0.03744 0.01752,3.51e-4 0.01066,-0.02531 0.01406,-0.0047 c 0.02585,0.04352 0.08729,0.04137 0.108339,-0.0053 -0.0047,-0.02508 -0.04366,-0.02195 -0.05625,-0.03955 -0.004,-0.0071 -0.0012,-0.02083 0.0015,-0.02783 0.01479,-0.0056 0.04025,-0.02375 0.04605,-0.03961 l 0.01553,0.0031 0.03076,0.03123 0.02303,0.0016 c 0.0099,-0.0074 0.01217,-0.03239 0.01857,-0.04471 0.0036,-0.0049 0.0078,-0.0084 0.01236,-0.01096 l -20.41915995,0 z"
     id="rect4"
     inkscape:connector-curvature="0" />
  <path
     style="fill:#ffffff;stroke:#75aadb;stroke-width:0.066;stroke-miterlimit:4;stroke-dasharray:none;stroke-opacity:1"
     d="m 2.8731273,10.173007 c 8.901e-4,0.374997 0.00188,0.749999 0.00311,1.125 l 19.9296677,0 c -0.07286,-0.04568 -0.135764,0.07409 -0.223828,-0.148535 l 0.0023,-0.015 0.01559,-0.01002 9.96e-4,-0.01154 -0.01189,-0.0044 c -0.01094,0.007 -0.04151,0.01993 -0.05496,0.01313 l -0.02748,-0.03094 c 0.0033,-0.03226 0.04948,-0.04754 0.05168,-0.06943 l -0.0073,-0.01412 -0.01617,-0.0097 -0.03252,-5.28e-4 -0.01272,-0.0079 c -0.0047,-0.0074 -0.0076,-0.02293 -0.0036,-0.03123 0.0066,-0.0079 0.02362,-0.01434 0.03352,-0.01512 l 0.0081,-0.0084 c 0.01989,-0.03874 -0.05437,-0.07175 -0.05637,-0.0917 0.0074,-0.0064 0.01787,-0.02155 0.01769,-0.03193 -0.0024,-0.01923 -0.02345,-0.02861 -0.03275,-0.04307 -0.0147,-0.02264 -0.02348,-0.05221 -0.03926,-0.07377 -0.01216,-0.0167 -0.03594,-0.03502 -0.05109,-0.04975 -0.01008,-0.04198 0.01601,-0.07146 -0.01014,-0.126152 -0.02933,-0.02827 -0.02204,-0.01587 -0.03457,-0.05145 l -0.05203,-0.03744 c -6e-4,-0.0018 -0.0028,-0.01119 -0.0038,-0.01219 -0.05403,-0.05612 -0.04223,-0.06773 -0.07822,-0.124747 -0.02521,-0.04004 -0.06386,-0.08385 -0.0992,-0.119121 l -19.2147652,0 z"
     id="rect6-4"
     inkscape:connector-curvature="0" />
  <path
     style="fill:#75aadb;stroke:#75aadb;stroke-width:0.066;stroke-miterlimit:4;stroke-dasharray:none;stroke-opacity:1"
     d="m 14.604475,0.03330046 c -0.0067,-5.152e-4 -0.01108,-3.7671e-4 -0.01266,6.4454e-4 -0.01774,0.007903 -0.02118,0.06827728 -0.04447,0.08736328 l -0.0094,0.003457 -0.0075,-0.001934 -0.01225,-0.012832 -0.01553,0.002168 c -0.0051,0.004742 -0.01024,0.0103966 -0.01184,0.0172266 -0.01503,0.065814 -0.09019,0.0750044 -0.149414,0.0880664 -0.0095,-0.011571 -0.03184,-0.0228123 -0.04687,-0.0233789 l -0.0062,-0.0101367 0.0027,-0.006152 0.02297,-0.003574 0.0079,-0.0136524 c -1.2e-4,-0.012555 -0.02285,-0.032093 -0.03205,-0.037793 l -0.01424,-0.002578 c -0.01956,0.019145 -0.08849,0.0882998 -0.11625,0.0783398 l -0.0095,-0.00873 0.02408,-0.0294141 -0.0015,-0.0121875 -0.0082,-0.006035 -0.01078,-6.4452e-4 -0.03223,0.0349219 -0.0081,0.002109 c -0.0074,-0.002923 -0.02778,-0.0139616 -0.02988,-0.0228516 l 0.0066,-0.0177539 -0.0069,-0.007383 -0.02233,-0.005977 -0.009,-0.0155273 5.85e-4,-0.008848 0.03568,-0.0158789 0.008,-0.01300781 -0.0034,-0.0081445 c -0.01866,-0.016402 -0.05998,0.0039209 -0.07623,0.01587891 l -0.01576,0.03890625 c -0.02042,0.01455 -0.07982,0.0125964 -0.102539,0.009316 -0.01527,0.044224 -0.04106,0.059727 -0.08713,0.063457 l -0.02133,0.0301758 c -0.05683,-0.029672 -0.0539,0.0110592 -0.09592,0.001699 -0.01646,0.03092 -0.06051,0.0285377 -0.09018,0.0350977 l -0.0062,0.0101953 0.0096,0.0176367 -0.0054,0.0128906 -0.01758,0.002871 -0.01201,0.0130078 -0.01084,7.0311e-4 -0.0055,-0.0114844 -0.01477,0.0136523 -0.01219,-0.00123 -0.01154,-0.008789 c -0.0041,-1.2e-4 -0.01687,1.887e-4 -0.01957,0.004219 l 0.0041,0.0101953 0.01834,0.0127734 -6.45e-4,0.006094 -0.01623,8.202e-4 -0.01213,0.0108984 -0.02965,0.004277 -0.01746,0.0218555 -0.01008,0.001465 -0.0075,-0.007441 -0.0042,-0.0169922 -0.0055,-0.00334 -0.01277,0.002754 -0.01072,0.0164063 0.0041,0.0101367 c -0.0066,0.004981 -0.01854,0.0193823 -0.01734,0.0286523 l 0.0055,0.0135938 -0.0054,0.008848 -0.01822,-5.859e-4 c -0.0054,0.017803 -0.02346,0.0397185 -0.03691,0.0518555 l -0.0046,0.0258398 -0.01014,0.00416 c -0.008,-4.17e-4 -0.01834,-0.0118741 -0.02174,-0.018164 -0.007,0.007217 -0.03418,0.0321198 -0.04512,0.0315234 -0.0078,-9e-5 -0.01868,-0.0118181 -0.02238,-0.0175781 l -0.01219,-0.002637 c -0.007,0.002833 -0.01831,0.0124278 -0.01951,0.0205078 l 0.0041,0.006797 0.01558,0.003984 0.0035,0.008789 c -0.005,0.016372 -0.0253,0.0237274 -0.03562,0.0355664 -0.0053,0.006143 -0.0077,0.0171676 -0.01272,0.0238477 -0.0091,0.0122565 -0.108997,0.0153752 -0.09469,0.11736327 -0.03855,0.0467596 -0.0715,0.11206317 -0.119239,0.14853516 -0.01655,0.00414 -0.110304,0.003532 -0.125214,0.001172 -0.02018,-0.003191 -0.03636,-0.0190283 -0.06105,-0.0198633 l -0.01998,-0.0391992 -0.03545,0.004336 c 8.01e-4,-0.007187 9.03e-4,-0.0228389 -0.0068,-0.0271289 l -0.01353,-0.001289 -0.0076,-0.0142383 c 0.0088,-0.011332 0.02488,-0.0349855 0.02748,-0.0496875 l -0.0034,-0.0108984 c -0.01858,-0.01172 -0.05928,-0.0463655 -0.06328,-0.0703125 l -0.02303,-0.0121289 -0.0055,-0.008789 0.008,-0.0435352 -0.0076,-0.0135352 -0.0074,0.001406 -0.0067,0.0237891 c -0.01708,-5.07e-4 -0.06884,-0.0347485 -0.07594,-0.0512695 -0.0063,-7.8e-4 -0.01493,0.002429 -0.01893,0.007559 l -0.02232,-0.008086 -0.01348,0.0231445 -0.0094,0.003457 c -0.01,-0.00161 -0.02319,-0.020458 -0.02719,-0.028418 -0.02365,-0.00963 -0.04368,0.004511 -0.06563,-0.003809 -0.0078,0.00507 -0.01546,0.0164239 -0.01816,0.0252539 l -0.02631,0.007559 c -0.0043,0.027525 -0.01741,0.0278359 -0.02889,0.0442969 -0.02475,0.035487 -0.03479,0.0607606 -0.08707,0.0608203 -0.02263,0.019712 -0.02749,0.0916828 -0.0416,0.0973828 l -0.01418,0.002168 c -0.01402,-0.008319 -0.03387,-0.0455753 -0.04037,-0.0595313 -0.03122,-0.017772 -0.09476,0.0353864 -0.130313,0.035625 -0.0043,3e-5 -0.07388,-0.0175647 -0.08338,-0.0198047 l -0.01752,0.007617 -0.01863,0.0442969 c -0.0093,0.005336 -0.01988,0.009476 -0.03023,0.0122461 l -0.01037,-0.006621 -0.0068,0.0108984 7.02e-4,0.0128906 c -0.03889,0.057495 -0.06338,0.0968779 -0.124102,0.13558593 l -0.0068,0.0224414 c -0.01867,0.022276 -0.06572,0.0494124 -0.09053,0.0633984 -0.0286,-1.5e-4 -0.04991,-0.011688 -0.07723,-0.013418 l -0.0102,-0.0068 -0.0087,0.00615 c 0.01143,0.018132 0.01766,0.048634 -0.0039,0.061875 l -0.05479,0.012305 -0.01553,0.024492 -0.03252,0.00621 c -0.02633,0.021053 -0.02865,0.067981 -0.06685,0.070781 l -0.01354,-0.00475 c -0.0099,0.01667 -0.02853,0.055574 -0.04529,0.063984 l -0.03111,-0.00199 -0.01693,-0.011484 -0.004,0.024434 -0.02432,0.0068 -0.01084,0.012305 -0.01693,-0.0041 c -0.0133,0.00489 -0.04103,0.059532 -0.04863,0.072773 l 0.0041,0.00744 0.02098,0.0068 0.0029,0.00814 c -0.01851,0.044552 -0.02918,0.055688 -0.06586,0.086016 -0.03498,0.0023 -0.06362,0.020907 -0.09398,0.036504 l -0.0174,0.037441 -0.0088,0.011602 -0.0025,0.033984 -0.03393,-0.00592 -0.0106,0.05168 c -0.01813,0.02508 -0.07856,0.032806 -0.10752,0.054844 l -0.0081,0.014941 c 0.0041,0.00856 0.0102,0.031008 0.0041,0.040078 -0.0337,0.015656 -0.03127,0.051789 -0.0508,0.075527 -0.01476,0.017952 -0.04474,0.037639 -0.06299,0.053027 -0.004,0.00334 -0.0089,0.011939 -0.01219,0.016289 l -0.01693,-6.444e-4 -0.01219,0.016992 -0.01359,0.0034 c -0.0083,0.00459 -0.01535,0.019435 -0.01559,0.028535 l -0.0549,0.021797 -0.0034,0.013594 -0.01019,0.00814 c -0.01216,0.00152 -0.03227,-0.00766 -0.04137,-0.014941 l -0.01705,8.202e-4 -0.01213,0.011484 c -0.0083,-0.00104 -0.02588,0.00107 -0.03188,0.00814 -0.0029,0.027704 -0.03394,0.073143 -0.04945,0.097149 -0.0084,0.01303 -0.02348,0.01163 -0.03463,0.01834 -0.03233,0.019502 -0.08366,0.040925 -0.102481,0.076055 l -0.01353,0.00275 c -0.0096,-0.00391 -0.03067,-0.016452 -0.03457,-0.027187 l -0.02514,6.444e-4 -0.03258,-0.029238 -0.02437,-0.00205 c -0.0064,-0.00853 -0.0069,-0.013456 -0.0075,-0.023086 l 0.01154,-0.01084 c 0.0043,-0.00892 -0.0018,-0.056474 -0.0041,-0.068731 l -0.02648,-0.01418 c -0.0091,-0.032506 0.01518,-0.070632 0.0091,-0.1074023 -0.01032,-0.013867 -0.03769,-0.05505 -0.03826,-0.073301 0.0047,-0.012824 0.01892,-0.028284 0.02971,-0.036094 0.0055,-0.01345 -0.01316,-0.050901 -0.01986,-0.061816 l 0.0033,-0.029883 c -0.02684,-0.010736 -0.06429,-0.042349 -0.07547,-0.069785 0.004,-0.019175 0.01671,-0.049306 0.007,-0.067676 L 9.993601,1.5340429 c -0.00495,-0.00754 6.63e-4,-0.03616 0.00275,-0.04418 l -0.00609,0 C 9.981881,1.4769169 9.953446,1.4702529 9.93946,1.4708199 L 9.927976,1.4585149 C 9.922756,1.4427699 9.919906,1.4198669 9.923936,1.4034949 9.915826,1.3843489 9.85021,1.3928089 9.84126,1.4040808 l -0.010137,-0.00135 -0.016934,-0.023145 -0.01623,-0.0041 C 9.786984,1.3674058 9.778651,1.3425138 9.777041,1.3298998 9.785001,1.3239098 9.8028,1.3068588 9.80417,1.2959738 L 9.7941625,1.2783005 9.784729,1.2789449 9.762346,1.30748 C 9.756856,1.31085 9.745952,1.31263 9.740022,1.30947 L 9.721038,1.289079 9.710843,1.287669 9.698656,1.30261 9.690566,1.3019068 9.675039,1.2842698 c -0.011839,-4.17e-4 -0.022275,0.00839 -0.031875,0.01418 l -0.0068,-0.013594 0.0041,-0.00814 0.00949,-0.00475 c 0.00236,-0.012137 0.0081,-0.051593 0.00211,-0.063164 C 9.642404,1.1971418 9.616787,1.1687378 9.602025,1.1631568 9.589798,1.1375708 9.582074,1.1065748 9.577064,1.0788408 9.552521,1.0727608 9.542499,1.0521568 9.540619,1.0285088 9.516822,1.0036978 9.493422,0.9891659 9.493392,0.9523369 9.480986,0.9451499 9.46008,0.92899 9.45349,0.91554 l -0.018281,0 C 9.430619,0.909933 9.428119,0.9001386 9.429819,0.8930986 L 9.421729,0.8795048 c -5.4e-4,-0.007515 -0.0011,-0.0357858 0.00486,-0.0414258 0.00584,-0.00289 0.01661,2.67e-4 0.02168,0.003398 L 9.457059,0.831985 9.447629,0.8177467 C 9.439699,0.8199837 9.410863,0.7893059 9.394133,0.7856959 L 9.389383,0.7585084 9.412352,0.7224732 C 9.398367,0.6953072 9.369143,0.6907469 9.347254,0.6723169 9.200176,0.6632469 9.0393964,0.6935893 8.8947343,0.6700899 c -0.00212,9.6e-4 -0.010307,0.005419 -0.012187,0.005449 -0.094563,8.649e-4 -0.1651302,0.0187077 -0.2576952,0.0360938 -0.048161,0.009066 -0.098124,0.0121598 -0.1460742,0.0220898 0,0 -4.0102344,0.8544061 -4.2374415,0.8782031 -0.1824159,0.019085 -0.3679239,0.00853 -0.927129,0.00832 L 2.872645,1.6200686 c -0.00404,2.8460723 -0.00629,5.6919476 4.69e-4,8.5379304 l 19.214766,0 c -0.0032,-0.0032 -0.0065,-0.0067 -0.0096,-0.0097 l -0.005,-0.05355 c -0.109458,-0.01201 -0.08438,-0.05849 -0.118653,-0.06932 -0.01473,-0.0047 -0.05273,-0.0057 -0.06193,-0.01892 -0.01628,-0.02332 -0.02054,-0.041156 -0.05033,-0.055196 -0.01142,-0.05914 -0.0436,-0.042569 -0.07166,-0.079219 -0.02371,-0.03101 -0.03239,-0.084959 -0.05473,-0.1216992 -0.01011,-0.01655 0.03114,-0.045714 0.04014,-0.051914 l 0.0064,-0.023262 c -0.0037,-0.02266 -0.02529,-0.058062 -0.03774,-0.076582 -3.9e-4,-0.01348 0.04466,-0.02987 0.04846,-0.04875 l -0.01453,-0.030937 0.03164,-0.05918 c -0.01005,-0.039244 -0.09027,-0.060396 -0.05994,-0.1093359 0.008,-0.01303 0.03886,-0.053429 0.03346,-0.068789 -0.01426,-0.02129 -0.02557,-0.044726 -0.03744,-0.071836 0.0064,-0.055047 0.05804,-0.07177 0.06674,-0.1004295 0.01174,-0.038322 0.02096,-0.097938 0.02426,-0.1379883 l 0.02689,-0.0225 c -0.03164,-0.06692 0.01718,-0.094739 0.0074,-0.1267383 l -0.02244,-0.072891 0.01547,-0.041836 c -0.02365,-0.077505 -0.08582,-0.1039704 -0.07383,-0.2041992 0.0047,-0.039871 -0.01246,-0.1153497 0.0096,-0.1382226 0.01374,-0.0034 0.03093,-0.019654 0.03773,-0.031524 l 4.68e-4,-0.01084 c -0.0052,-0.00605 -0.01111,-0.020069 -0.0089,-0.02836 l 0.008,-0.0068 c 0.03966,-0.089792 0.02559,-0.1148637 -0.03,-0.1820508 -0.01726,-0.020844 -0.04787,-0.055506 -0.07793,-0.057656 -0.03003,0.018191 -0.07093,0.042951 -0.107696,0.032813 l -0.06129,-0.052676 c -0.05854,-0.020368 -0.09403,0.042502 -0.146777,0.034512 -0.08621,-0.013061 -0.185297,-0.059613 -0.270527,-0.064863 -0.04031,-0.00248 -0.06753,0.024287 -0.100782,0.035977 -0.01676,0.0059 -0.161155,-0.00498 -0.176425,-0.00838 -0.01246,-0.00283 -0.0301,-0.012509 -0.0375,-0.024199 l -0.01652,-0.00299 c -0.04533,0.027584 -0.144098,0.084553 -0.200098,0.077813 l -0.0064,-0.00598 c -0.01771,-0.064264 0.02926,-0.1688301 0.03246,-0.2326173 0.0035,-0.069453 0.01407,-0.3051645 0.0039,-0.3529686 -0.008,-0.037604 -0.0226,-0.072349 -0.029,-0.1114452 -0.0053,-0.032803 -0.0044,-0.071156 -0.01975,-0.1014846 l 0.002,-0.00621 -0.05449,-0.045059 c 0.005,-0.047744 -0.02854,-0.082111 -0.04107,-0.1242189 -0.0052,-0.017325 -0.0045,-0.046607 -0.0063,-0.065156 -9e-5,-0.00179 -0.0059,-0.01013 -0.0071,-0.01207 l -0.02772,-0.013711 -0.009,-0.037851 c -0.04276,-0.026839 -0.03641,-0.1209627 -0.108223,-0.1228125 -0.0413,0.014314 -0.190999,0.019942 -0.230039,4.68e-4 -0.02621,-0.026511 -0.05275,-0.092732 -0.06492,-0.1289649 -0.0263,-0.022663 -0.0604,-0.028389 -0.08643,-0.04998 -0.02382,0.00209 -0.05306,9.12e-4 -0.07617,-0.00598 -0.03072,0.0306 -0.06873,-0.00123 -0.09873,-0.00281 -0.0223,-0.00119 -0.0511,0.00834 -0.07266,-6.45e-4 -0.0145,-0.00602 -0.02898,-0.018783 -0.04365,-0.023613 -0.01431,-0.00471 -0.034,-0.00149 -0.04805,-0.00656 -0.01971,-0.00716 -0.03155,-0.023041 -0.0566,-0.029121 -0.04274,-0.026633 -0.04446,0.010788 -0.110332,-0.02291 -0.01222,-0.00624 -0.035,-0.00261 -0.04928,-0.00234 l -0.02156,-0.016582 -0.01078,0.00832 c -0.0047,0.00104 -0.06798,-0.025273 -0.108574,-0.019043 -0.0065,-0.00182 -0.01566,-0.00914 -0.01746,-0.015996 l 0.01312,-0.030117 c -0.0062,-0.01506 -0.02877,-0.057681 -0.05039,-0.056191 -0.0093,0.00739 -0.02448,0.00382 -0.03428,-4.11e-4 -0.115498,-0.049832 -0.09968,-9e-5 -0.168692,-0.010898 -0.02923,-0.043509 -0.04237,-0.1247151 -0.06217,-0.1447851 -0.0119,-0.012107 -0.124269,-0.033526 -0.144609,-0.037676 -0.02245,-0.00459 -0.05929,0.02718 -0.07769,0.015937 -0.01682,-0.023887 -0.08301,-0.1319181 -0.09141,-0.1505859 -0.03763,-0.08326 -0.0035,-0.09208 -0.0948,-0.1420899 l -0.03908,-0.00187 c -0.03286,-0.050013 -0.04034,-0.025505 -0.08525,-0.047871 -0.0094,-0.00465 -0.03127,-0.028208 -0.03967,-0.031758 -0.04989,-0.020935 -0.133293,-3.39e-4 -0.172383,-0.031055 -0.0597,-0.046939 -0.0466,-0.052357 -0.07019,-0.1155468 -0.011,-0.029552 -0.02842,-0.049404 -0.04324,-0.073887 -0.0069,-0.011451 -0.0051,-0.024602 -0.01723,-0.03498 -0.07229,-0.02001 -0.02612,0.056368 -0.18041,-0.030352 -0.013,-0.023708 0.0606,-0.1094634 0.0733,-0.1238673 l -0.0017,-0.01623 c -0.04059,-0.024811 -0.103065,-0.1207638 -0.143085,-0.1106838 -0.05699,0.014347 -0.131757,0.046721 -0.186387,0.010488 -0.02142,-0.014196 -0.03556,-0.035403 -0.05906,-0.048047 -0.01852,-0.00999 -0.05084,-0.002 -0.06656,-0.014766 -0.06901,-0.056153 -0.05639,-0.059632 -0.0883,-0.1471875 -0.0034,-0.00945 -0.01957,-0.034117 -0.02127,-0.041777 -0.0113,-0.052366 -0.01553,-0.110157 -0.02303,-0.1634178 -0.003,-0.021233 -0.04649,-0.035804 -0.06188,-0.053965 -0.0089,-0.065815 -0.0055,-0.1155189 -0.0334,-0.1787109 -0.01,-0.022603 -0.02869,-0.043194 -0.03809,-0.065918 -0.02141,-0.051799 -0.02713,-0.1116741 -0.06035,-0.1586133 0.003,-0.0116 0.009,-0.039779 0.0059,-0.051797 l -0.02016,-0.019336 -0.01312,-0.00141 c -0.0095,-0.028956 -0.03535,-0.061147 -0.05795,-0.080859 -0.0041,-0.012167 0.0086,-0.039589 0.01471,-0.049219 -0.03442,-0.052664 -0.0622,-0.1059009 -0.09703,-0.1579689 -0.05234,-0.07822 -0.0681,-0.030275 -0.122227,-0.1596093 -0.0075,-0.018041 -0.0097,-0.044921 -0.02086,-0.059414 -0.0072,-0.073092 0.04015,-0.1179846 0.09451,-0.1559766 0.01354,-0.022962 -0.0098,-0.1070337 -0.01816,-0.1363476 l 0.0025,-0.00732 -0.0069,-7.02e-4 c -0.01103,-0.039781 -0.09216,-0.2060304 -0.120762,-0.2384766 -0.06087,-0.00605 -0.100462,-0.044783 -0.143672,-0.08039 -0.04488,-0.036948 -0.139269,-0.1008822 -0.197929,-0.1168362 0.005,-0.022217 0.0094,-0.057523 0.0031,-0.080098 -0.03972,-0.035875 -0.106055,-0.1738301 -0.07769,-0.2197851 -0.03482,-0.063877 -0.0061,-0.078164 -0.0064,-0.133125 l 0.01805,-0.021387 c -0.05404,-0.056958 -0.01908,-0.1344412 -0.0382,-0.1645312 -0.0235,-0.037067 -0.07996,-0.048857 -0.09797,-0.089414 -0.02078,1.8e-4 -0.03597,-0.01261 -0.05467,-0.01541 -0.01553,-0.00233 -0.04015,0.00761 -0.05437,-0.00387 -0.125931,-0.1019881 -0.125074,-0.2227249 -0.188144,-0.2905079 -0.02326,-0.024993 -0.06854,-0.015933 -0.09627,-0.034512 -0.0095,-0.00635 -0.03625,-0.047299 -0.03885,-0.05127 C 15.763532,1.9779485 15.6972,1.9024363 15.61946,1.8206673 15.61136,1.8121373 15.53778,1.5786447 15.53268,1.5637337 l -0.0042,-0.00809 C 15.50755,1.5200667 15.479,1.4805387 15.46233,1.4432023 c -0.0086,-0.019442 -0.0073,-0.04792 -0.01459,-0.068437 -0.008,-0.022844 -0.02726,-0.036015 -0.03803,-0.053789 C 15.37789,1.2686703 15.36173,1.202345 15.33254,1.149531 15.31295,1.113924 15.2863,1.078706 15.26393,1.044531 15.24615,1.017333 15.19628,1.036371 15.18155,1.012422 l -0.01506,-0.0520898 c -0.01145,-0.02508 -0.09171,-0.0257641 -0.111035,-0.050039 -0.01247,-0.0594036 -0.08872,-0.13221618 -0.112734,-0.19728516 -0.01464,-0.0395725 -0.02037,-0.13073196 -0.04008,-0.16183593 -0.03772,-0.059523 -0.113096,-0.0888701 -0.076,-0.16816407 -0.03942,-0.0585686 0.02937,-0.14395192 0.04195,-0.19962892 0.0073,-0.032326 0.0098,-0.0650069 0.02033,-0.09679687 l 0.02021,-0.0019922 0.0044,-0.01541016 -0.0089,-0.01347656 -0.02285,0.0057422 -0.01096,-0.009375 -0.0086,0.01166015 c -0.05493,0.0088725 -0.21115,-0.02686233 -0.257813,-0.03046875 z"
     id="rect4-4"
     inkscape:connector-curvature="0" />
  <path
     d="m 2.8762328,11.283007 c 0.00135,0.414165 0.00282,0.828367 0.00463,1.24254 -0.940825,-0.002 -1.88184076,-6.94e-4 -2.82263671,-0.0061 0,0.820429 3.6206e-4,2.086606 6.4453e-4,3.263554 l 22.13771438,0 c 0.07641,-0.03976 0.167134,-0.05667 0.22002,-0.13746 0.03135,-0.0478 -0.0022,-0.126394 0.01412,-0.154454 0.0093,-0.0069 0.02437,-0.02229 0.02777,-0.03392 0.0014,-0.01572 -0.02397,-0.06494 -0.03146,-0.07863 l 0.006,-0.01377 0.01512,-0.0092 0.05397,0.0069 c 0.0331,-0.0052 0.04656,-0.03912 0.07113,-0.05543 0.09605,-0.06364 0.124028,-0.04172 0.180118,-0.155215 -0.01782,-0.03784 -0.05698,-0.170598 0.0078,-0.183868 0.0254,-0.0053 0.05676,-0.0085 0.08109,-0.0167 0.0399,-0.01333 0.06638,-0.06903 0.09656,-0.09492 0.03895,-0.0334 0.09542,-0.0495 0.118945,-0.09685 l 0.0039,-0.01811 -0.01207,-0.108984 c 3.57e-4,-0.0017 0.117352,-0.132094 0.120352,-0.133594 0.05225,-0.02621 0.11094,-0.04515 0.164589,-0.07154 0.0053,-0.0026 0.01225,-0.0096 0.01705,-0.0133 0.01807,-0.127663 0.161825,-0.06991 0.207305,-0.182812 0.01748,-0.02352 0.268132,-0.02623 0.307852,-0.02812 0.06734,-0.0033 0.171993,0.04882 0.178593,0.04799 0.03835,-0.02857 0.08339,-0.02417 0.114785,-0.06756 0.06349,-0.02289 0.145419,0.01595 0.212579,-0.01453 0.02371,-0.01074 0.05684,-0.02155 0.07828,-0.03551 0.05231,-0.03403 0.0206,-0.04681 0.102187,-0.05391 l 0.03967,-0.04465 c 0.03525,0.0047 0.06587,-0.02486 0.10002,-0.03076 0.06495,-0.01118 0.103872,-0.013 0.171152,-0.03334 l 0.04324,-0.01307 c 0.01041,-0.0031 0.02245,8.94e-4 0.03035,-0.0097 l 0.0065,-0.01717 -0.01078,-0.03293 0.0066,-0.01377 c 0.09259,-0.05147 0.12089,-0.07499 0.22043,-0.0093 l 0.02227,-6.45e-4 c 0.0167,-0.02624 0.04294,-0.05834 0.07008,-0.07471 l 0.02385,-0.09047 c 0.0016,-0.0061 0.02437,-0.03307 0.02449,-0.03322 0.06027,-0.07378 0.03985,-0.07193 0.0096,-0.166757 -0.0181,-0.0568 0.03383,-0.09368 0.03773,-0.142618 l 0.05361,-0.02133 c 0.01805,-0.05007 0.04954,-0.09276 0.05414,-0.147305 0.02004,-0.0076 0.04262,-0.02462 0.05619,-0.04107 0.01708,-6.6e-4 0.09203,0.0038 0.101133,0.01447 0.01899,5.01e-4 0.06075,-0.0065 0.07441,-0.02227 l 0.04242,-8.19e-4 c 0.03739,-0.0011 0.07528,-0.0032 0.112617,-1.2e-4 0.0866,-0.04399 0.0839,-0.112498 0.197637,-0.09756 0.03194,0.0098 0.06373,0.02036 0.09504,0.03193 l 0.01,-0.0073 c 0.01226,0.0011 0.02597,0.005 0.03656,0.01125 0.01315,-0.0015 0.03022,-0.0071 0.04078,-0.01518 0.02016,0.0058 0.06081,0.01123 0.08133,0.0029 0.01139,0.0061 0.02943,0.03137 0.03633,0.04178 l 0.01799,0.0032 0.02209,-0.0184 c 0.01665,0.0016 0.03825,0.001 0.05432,-0.0046 l 4.11e-4,6e-5 -0.002,-0.0069 c -0.0396,-0.07133 -0.09866,-0.123228 -0.161133,-0.176309 -0.08961,-0.07622 -0.06936,-0.14561 -0.145137,-0.21873 -0.002,-6e-5 -0.0066,-9.81e-4 -0.0084,-2.4e-4 -0.05433,0.02206 -0.117929,0.04551 -0.175429,0.05613 -0.03397,0.0063 -0.07085,-0.01797 -0.111621,-0.0073 -0.03239,-0.02108 -0.07139,-0.02233 -0.104942,-0.03996 -0.147642,-0.07766 -0.201419,-0.168438 -0.244629,-0.322852 -0.02806,-0.100228 0.0541,-0.347829 0.152871,-0.398379 -0.04074,-0.06697 -0.09181,-0.07456 -0.165879,-0.08783 l -0.0019,-0.0054 c -0.02395,-0.01217 -0.04087,-0.04552 -0.04857,-0.04922 l 0,0.01143 c -0.0586,-0.02331 -0.101967,0.01164 -0.161367,0.0015 -0.05007,-0.0086 -0.0908,-0.03284 -0.144902,-0.03914 -0.03734,-0.01252 -0.06805,-0.01214 -0.101778,-0.03662 -0.01601,-0.01163 -0.02398,-0.03116 -0.04635,-0.03516 -0.03707,-0.0066 -0.07934,-0.0061 -0.117364,-0.01066 l -0.0072,0.0013 c -0.08022,-0.08824 -0.222731,-0.120224 -0.331875,-0.157324 -0.02282,-0.0078 -0.03526,-0.05593 -0.05906,-0.07576 -0.01243,-0.01032 -0.06666,-0.0086 -0.101133,-0.0249 -0.0036,-0.0016 -0.04215,-0.0047 -0.04875,-0.0054 -0.02395,-0.02941 -0.05027,-0.0478 -0.08865,-0.04705 l -0.0109,0.0058 c -0.0026,0.01771 -0.01775,0.03893 -0.03685,0.04113 l -0.02303,-0.0069 c -0.01697,0.0016 -0.05527,0.06405 -0.135704,0.07225 -0.03015,0.0031 -0.07191,-0.05649 -0.113965,-0.05279 l -0.01939,-0.0218 c -0.16685,-0.04273 -0.09194,9.24e-4 -0.236777,-0.106524 -0.01088,0.0015 -0.02568,0.01152 -0.03258,0.01992 -0.02535,0.0036 -0.04862,-0.02893 -0.07576,-0.03193 l -0.144375,-0.01576 c -0.02421,-0.0027 -0.03468,0.01021 -0.05168,0.0109 -0.02835,0.0012 -0.06508,-0.0012 -0.09258,0.0039 -0.02227,0.0041 -0.04107,0.03031 -0.07137,0.02361 -0.02165,-0.0048 -0.04506,-0.01903 -0.0665,-0.02613 -0.02866,-0.0094 -0.05689,-0.0077 -0.08549,-0.01336 -0.08615,-0.01712 -0.07214,-0.04473 -0.191778,-0.02836 -0.0052,-0.005 -0.01042,-0.0089 -0.01553,-0.01213 l -19.9296679,0 z"
     id="rect8"
     style="fill:#000000;fill-opacity:1;stroke:#000000;stroke-width:0.066;stroke-miterlimit:4;stroke-dasharray:none;stroke-opacity:1"
     inkscape:connector-curvature="0" />
</svg>
